<svg xmlns="http://www.w3.org/2000/svg" viewBox="0 0 512 512">
  <defs>
    <linearGradient id="bg" x1="0" y1="0" x2="1" y2="1">
      <stop offset="0%" stop-color="#ffb062"/>
      <stop offset="55%" stop-color="#f77f45"/>
      <stop offset="100%" stop-color="#c6592b"/>
    </linearGradient>
    <linearGradient id="panel" x1="0" y1="0" x2="1" y2="1">
      <stop offset="0%" stop-color="#fff9f2"/>
      <stop offset="100%" stop-color="#ffe4ca"/>
    </linearGradient>
  </defs>
  <rect width="512" height="512" rx="128" fill="url(#bg)"/>
  <circle cx="398" cy="112" r="44" fill="#fff2d8" opacity=".45"/>
  <circle cx="120" cy="404" r="58" fill="#ffd0a7" opacity=".28"/>
  <rect x="96" y="104" width="320" height="304" rx="44" fill="url(#panel)" opacity=".95"/>
  <rect x="128" y="148" width="92" height="22" rx="11" fill="#f58d53"/>
  <rect x="128" y="198" width="256" height="26" rx="13" fill="#f0c49a"/>
  <rect x="128" y="246" width="220" height="26" rx="13" fill="#f0c49a"/>
  <rect x="128" y="294" width="184" height="26" rx="13" fill="#f0c49a"/>
  <path d="M316 348c-21.8 0-42.2-8.5-57.6-23.9l-16.4-16.4 27.6-27.6 16.4 16.4c8 8 18.6 12.4 30 12.4 11.3 0 22-4.4 30-12.4l53.2-53.3 27.6 27.7-53.2 53.2C358.2 339.5 337.8 348 316 348Z" fill="#188f8b"/>
  <path d="M189 349c-14.4 0-26-11.6-26-26s11.6-26 26-26 26 11.6 26 26-11.6 26-26 26Z" fill="#0f4f4d"/>
</svg>
